<svg xmlns="http://www.w3.org/2000/svg" viewBox="0 0 64 64" width="64" height="64">
  <defs>
    <linearGradient id="iconGrad" x1="0%" y1="0%" x2="100%" y2="100%">
      <stop offset="0%" stop-color="#F59E0B"/>
      <stop offset="100%" stop-color="#D97706"/>
    </linearGradient>
  </defs>

  <!-- Outer WhatsApp-style arc (the "C" shape) -->
  <path d="M32 4C16.5 4 4 15.6 4 30c0 5.5 1.8 10.6 4.8 14.8L6 58l13.6-3.5C23 56.1 27.4 57 32 57c15.5 0 28-11.6 28-26S47.5 4 32 4z" fill="none" stroke="url(#iconGrad)" stroke-width="4" stroke-linecap="round"/>

  <!-- Inner chat bubble -->
  <path d="M32 14c-9.4 0-17 6.7-17 15 0 3.2 1.1 6.1 3 8.5L16 46l8.8-2.3c2.1.7 4.4 1.1 7.2 1.1 9.4 0 17-6.7 17-15S41.4 14 32 14z" fill="url(#iconGrad)"/>

  <!-- Three dots -->
  <circle cx="25" cy="29" r="2" fill="white"/>
  <circle cx="32" cy="29" r="2" fill="white"/>
  <circle cx="39" cy="29" r="2" fill="white"/>

  <!-- AI badge box -->
  <rect x="38" y="4" width="20" height="14" rx="4" fill="#D97706"/>
  <text x="48" y="14.5" font-family="Arial,sans-serif" font-size="8" font-weight="bold" fill="white" text-anchor="middle">AI</text>

  <!-- Circuit lines (top right) -->
  <line x1="46" y1="4" x2="46" y2="2" stroke="#F59E0B" stroke-width="1.5" stroke-linecap="round"/>
  <line x1="52" y1="4" x2="54" y2="2" stroke="#F59E0B" stroke-width="1.5" stroke-linecap="round"/>
  <circle cx="46" cy="1.5" r="1" fill="#F59E0B"/>
  <circle cx="54" cy="1.5" r="1" fill="#F59E0B"/>
</svg>
